<?xml version="1.0" encoding="UTF-8"?>
<svg id="Layer_2" data-name="Layer 2" xmlns="http://www.w3.org/2000/svg" viewBox="0 0 311.42 423.81">
  <defs>
    <style>
      .cls-1 {
        fill: #fff;
      }

      .cls-2 {
        fill: #e80029;
      }

      .cls-3 {
        fill: #1d3767;
      }
    </style>
  </defs>
  <g id="Layer_1-2" data-name="Layer 1">
    <g>
      <path class="cls-1" d="M170.26,21.9c-5.87-6.8-10.66-14.18-14.55-21.9-3.89,7.71-8.68,15.1-14.55,21.9C104.52,64.36,55.24,78.59,0,28.78v289.49c.6,32.87,25.58,43.99,48.66,52.65l18.05,5.12c27.06,3.5,53.34,10.21,89,47.77,35.67-37.56,61.94-44.27,89-47.77l18.05-5.12c23.07-8.66,48.06-19.78,48.66-52.65V28.78c-55.24,49.81-104.52,35.57-141.16-6.88Z"/>
      <path class="cls-3" d="M170.49,40.32c-5.53-6.33-10.03-13.2-13.65-20.4-3.62,7.19-8.12,14.07-13.65,20.4-33.56,38.39-90.26,43.44-129.28,12.55v255.44c.55,29.72,23.43,39.77,44.56,47.6l16.53,4.63c24.83,3.17,48.94,9.25,81.69,43.38.05-.07.09-.13.14-.2.05.07.09.13.14.2,32.76-34.12,56.87-40.21,81.69-43.38l16.53-4.63c21.13-7.83,44.01-17.88,44.56-47.6V52.86c-39.02,30.89-95.73,25.84-129.28-12.55Z"/>
      <g>
        <path class="cls-1" d="M191.85,69.55s-43.97-6.41-65.02,27.58c-20.78,33.55-6.12,64.06-6.12,64.06,0,0,44.16,7.43,67.6-28.7,19.47-30,3.54-62.94,3.54-62.94Z"/>
        <g>
          <path class="cls-3" d="M144.67,95.32l19.69,10.07c.75-.8,1.51-1.58,2.27-2.36l-19.73-10.09c-.75.78-1.5,1.57-2.23,2.38Z"/>
          <path class="cls-3" d="M138.03,103.76l19.18,9.81c.74-.93,1.51-1.84,2.28-2.75l-19.42-9.93c-.7.94-1.39,1.89-2.05,2.87Z"/>
          <path class="cls-3" d="M132.86,112.54l18.51,9.46c.53-.91,1.08-1.81,1.64-2.68l-18.66-9.54c-.51.91-1,1.83-1.48,2.76Z"/>
          <path class="cls-3" d="M164.23,78.59c-.96.64-1.94,1.32-2.92,2.02l19.01,9.72c.89-.75,1.76-1.48,2.61-2.18l-18.7-9.56Z"/>
          <path class="cls-3" d="M152.29,87.78l19.65,10.05c.9-.85,1.8-1.68,2.69-2.49l-19.52-9.98c-.94.78-1.89,1.59-2.83,2.42Z"/>
        </g>
        <g>
          <path class="cls-3" d="M174.1,85.26c11.2-9.78,20.4-16.14,20.4-16.14l-1.68-1.13s-10.14,3.57-23.57,14.76l4.86,2.51Z"/>
          <path class="cls-3" d="M141.3,114.82c-13.66,21.77-22.11,46.87-22.11,46.87l2,1.21s10.54-25.73,24.09-46.09l-3.98-1.99Z"/>
        </g>
      </g>
      <g>
        <g>
          <g>
            <polygon class="cls-1" points="268.4 75.51 273.15 89.04 288.16 89.04 276.19 98.58 280.75 113.17 268.4 103.74 256.05 112.6 260.8 98.49 249.21 89.04 263.66 89.04 268.4 75.51"/>
            <polygon class="cls-1" points="268.4 119.75 273.15 133.29 288.16 133.29 276.19 142.82 280.75 157.41 268.4 147.97 256.05 156.84 260.8 142.73 249.21 133.29 263.66 133.29 268.4 119.75"/>
            <polygon class="cls-1" points="220.9 119.75 225.65 133.29 240.65 133.29 228.68 142.82 233.25 157.41 220.9 147.97 208.55 156.84 213.29 142.73 201.71 133.29 216.15 133.29 220.9 119.75"/>
            <polygon class="cls-1" points="220.51 75.51 225.27 89.04 240.28 89.04 228.31 98.58 232.87 113.17 220.51 103.74 208.17 112.6 212.92 98.49 201.33 89.04 215.77 89.04 220.51 75.51"/>
          </g>
          <g>
            <polygon class="cls-1" points="92.59 75.51 97.34 89.04 112.35 89.04 100.38 98.58 104.95 113.17 92.59 103.74 80.24 112.6 84.99 98.49 73.41 89.04 87.85 89.04 92.59 75.51"/>
            <polygon class="cls-1" points="92.59 119.75 97.34 133.29 112.35 133.29 100.38 142.82 104.95 157.41 92.59 147.97 80.24 156.84 84.99 142.73 73.41 133.29 87.85 133.29 92.59 119.75"/>
            <polygon class="cls-1" points="45.09 119.75 49.84 133.29 64.84 133.29 52.88 142.82 57.44 157.41 45.09 147.97 32.74 156.84 37.48 142.73 25.9 133.29 40.34 133.29 45.09 119.75"/>
            <polygon class="cls-1" points="44.71 75.51 49.46 89.04 64.48 89.04 52.5 98.58 57.06 113.17 44.71 103.74 32.36 112.6 37.11 98.49 25.52 89.04 39.96 89.04 44.71 75.51"/>
          </g>
        </g>
        <g>
          <g>
            <polygon class="cls-1" points="268.4 164.55 273.15 178.08 288.16 178.08 276.19 187.63 280.75 202.21 268.4 192.78 256.05 201.64 260.8 187.53 249.21 178.08 263.66 178.08 268.4 164.55"/>
            <polygon class="cls-1" points="220.51 164.55 225.27 178.08 240.28 178.08 228.31 187.63 232.87 202.21 220.51 192.78 208.17 201.64 212.92 187.53 201.33 178.08 215.77 178.08 220.51 164.55"/>
          </g>
          <g>
            <polygon class="cls-1" points="92.59 164.55 97.34 178.08 112.35 178.08 100.38 187.63 104.95 202.21 92.59 192.78 80.24 201.64 84.99 187.53 73.41 178.08 87.85 178.08 92.59 164.55"/>
            <polygon class="cls-1" points="44.71 164.55 49.46 178.08 64.48 178.08 52.5 187.63 57.06 202.21 44.71 192.78 32.36 201.64 37.11 187.53 25.52 178.08 39.96 178.08 44.71 164.55"/>
          </g>
        </g>
      </g>
      <path class="cls-1" d="M28.07,176.25v122.67c.49,27.3,21.11,36.53,40.15,43.72l14.89,4.25c22.37,2.91,44.09,8.5,73.6,39.84.04-.06.08-.12.13-.18.04.06.08.12.13.18,29.51-31.34,51.23-36.93,73.6-39.84l14.89-4.25c19.04-7.19,39.65-16.43,40.15-43.72v-122.67H28.07Z"/>
    </g>
    <g>
      <path class="cls-2" d="M90.37,338.41l-24.04-74.86v56.97h6.37l6.52,16.53c-10.24-2.93-19.73-6.51-27.91-11.23-2.43-.85-4.69-2.14-6.65-3.81l-.24-1.49v-105.92h-6.29v-30.99h29.88l24.11,88.07v-57.07h-6.37v-30.99h34.58v30.99h-6.37v130.27c-8.06-3.44-15.94-5.66-23.58-6.46Z"/>
      <path class="cls-2" d="M203.58,276.7l-14.26,17.85h-32.26v25.97h.76l-.76,55.31c-10.47-10.93-11.07-19.06-26.12-24.32v-30.99s6.29,0,6.29,0v-105.92h-6.29v-30.99h58.39l14.26,17.74v75.35ZM181.59,263.55v-48.95h-22.37v48.95h22.37Z"/>
      <path class="cls-2" d="M214.2,344.87v-24.35s6.29,0,6.29,0v-105.92h-6.29v-30.99h34.65v30.99h-6.29v105.92h16.76v-13.57h20.56v.39c-.38,5.16-1.98,9.36-5.46,12.64-13.06,12.32-26.54,18.6-60.22,24.9Z"/>
    </g>
  </g>
</svg>